<svg width="156" height="50" viewBox="0 0 156 50" fill="none" xmlns="http://www.w3.org/2000/svg">
<path fill-rule="evenodd" clip-rule="evenodd" d="M146.162 7.2409C141.953 7.2409 139.585 9.37563 138.428 11.8752H138.323V7.8659H132.325V9.3126C134.025 12.3544 134.986 15.8693 134.986 19.6474C134.986 23.4238 134.025 26.9395 132.325 29.9804V32.8591H138.639V19.2169C138.639 15.8845 140.268 12.8645 144.425 12.8645C148.845 12.8645 149.056 17.4465 149.056 20.2053V32.8591H155.369V17.0821C155.369 11.9789 152.948 7.2409 146.162 7.2409Z" fill="#4C5459"/>
<path fill-rule="evenodd" clip-rule="evenodd" d="M0 7.8659H5.99167V11.7715H6.09682C7.20066 9.42794 9.61863 7.2409 13.8232 7.2409C17.7115 7.2409 20.393 8.75153 21.7067 11.8747C23.5466 8.69878 26.2272 7.2409 30.0112 7.2409C36.7389 7.2409 39.1041 11.9789 39.1041 17.9673V32.8591H32.7969V18.696C32.7969 15.5724 31.8511 12.8645 28.1194 12.8645C24.177 12.8645 22.7054 16.0923 22.7054 19.3206V32.8591H16.3987V17.9673C16.3987 14.8951 15.1369 12.8645 12.088 12.8645C7.93625 12.8645 6.30667 15.8845 6.30667 19.2173V32.8591H0V7.8659Z" fill="#4C5459"/>
<path fill-rule="evenodd" clip-rule="evenodd" d="M58.9355 29.4865H58.7777C56.9979 32.3077 54.0642 33.5609 50.7128 33.5609C46.0515 33.5609 41.5481 31.002 41.5481 26.0402C41.5481 17.894 51.0798 17.3192 57.3639 17.3192H58.9355V16.6412C58.9355 13.5595 56.5258 11.9404 53.1739 11.9404C50.5559 11.9404 48.1466 12.9856 46.4702 14.5518L43.1714 11.262C45.9472 8.44122 49.8747 7.2409 53.8552 7.2409C64.5915 7.2409 64.5915 14.9697 64.5915 18.5209V32.9341H58.9355V29.4865ZM58.5691 21.7062H57.2596C53.8025 21.7062 47.8327 21.9676 47.8327 25.5703C47.8327 27.8683 50.1894 28.8601 52.2323 28.8601C56.5258 28.8601 58.5691 26.6146 58.5691 23.1163V21.7062Z" fill="#4C5459"/>
<path fill-rule="evenodd" clip-rule="evenodd" d="M91.5749 19.7828C91.5749 17.1536 92.0342 14.6497 92.8795 12.3405C90.7446 9.21422 87.2299 7.2409 82.6475 7.2409C79.0914 7.2409 75.748 8.60948 73.8902 11.6626H73.7849V7.87276H67.7338V45.1418H74.103V29.9283H74.262C75.5885 31.5603 78.1358 33.7714 82.9123 33.7714C87.4409 33.7714 91.1014 31.5264 93.2213 28.0273C92.1482 25.4623 91.5749 22.6754 91.5749 19.7828ZM81.3744 28.0865C76.7036 28.0865 73.8902 24.4544 73.8902 20.5064C73.8902 16.5588 76.7036 12.9258 81.3744 12.9258C86.0442 12.9258 88.8567 16.5588 88.8567 20.5064C88.8567 24.4544 86.0442 28.0865 81.3744 28.0865Z" fill="#4C5459"/>
<mask id="mask0_2968_44" style="mask-type:alpha" maskUnits="userSpaceOnUse" x="91" y="0" width="42" height="50">
<path fill-rule="evenodd" clip-rule="evenodd" d="M91.8398 49.9421H132.313V0.329872H91.8398V49.9421H91.8398Z" fill="white"/>
</mask>
<g mask="url(#mask0_2968_44)">
<path fill-rule="evenodd" clip-rule="evenodd" d="M124.76 19.5268C124.76 25.9378 119.566 31.1346 113.159 31.1346C106.753 31.1346 101.559 25.9378 101.559 19.5268C101.559 13.1161 106.753 7.91936 113.159 7.91936C119.566 7.91936 124.76 13.1161 124.76 19.5268ZM91.8398 49.9423L105.581 37.1402C114.386 40.9347 124.831 37.6152 129.742 29.1034C135.035 19.9296 131.894 8.19954 122.726 2.90285C113.557 -2.39385 101.833 0.749477 96.5409 9.92333C92.211 17.427 93.5258 26.6385 99.1622 32.6427L91.8398 49.9423Z" fill="#98CA02"/>
</g>
</svg>
